<?xml version="1.0" standalone="no"?>
<!DOCTYPE svg PUBLIC "-//W3C//DTD SVG 1.1//EN" "http://www.w3.org/Graphics/SVG/1.1/DTD/svg11.dtd">
<svg xmlns:dc="http://purl.org/dc/elements/1.1/" xmlns:cc="http://creativecommons.org/ns#" xmlns:rdf="http://www.w3.org/1999/02/22-rdf-syntax-ns#" xmlns:svg="http://www.w3.org/2000/svg" xmlns="http://www.w3.org/2000/svg" xmlns:sodipodi="http://sodipodi.sourceforge.net/DTD/sodipodi-0.dtd" xmlns:inkscape="http://www.inkscape.org/namespaces/inkscape" viewBox="0 0 235.47913 60.854244" height="60.854244232177734" width="235.4791259765625" version="1.1" id="svg24" sodipodi:docname="brand.svg" inkscape:version="0.92.3 (2405546, 2018-03-11)">
  <metadata id="metadata30">
    <rdf:RDF>
      <cc:Work rdf:about="">
        <dc:format>image/svg+xml</dc:format>
        <dc:type rdf:resource="http://purl.org/dc/dcmitype/StillImage"/>
        <dc:title/>
      </cc:Work>
    </rdf:RDF>
  </metadata>
  <defs id="defs28"/>
  <sodipodi:namedview pagecolor="#ffffff" bordercolor="#666666" borderopacity="1" objecttolerance="10" gridtolerance="10" guidetolerance="10" inkscape:pageopacity="0" inkscape:pageshadow="2" inkscape:window-width="1366" inkscape:window-height="703" id="namedview26" showgrid="false" fit-margin-top="0" fit-margin-left="0" fit-margin-right="0" fit-margin-bottom="0" inkscape:zoom="0.42916463" inkscape:cx="451.99926" inkscape:cy="105.23177" inkscape:window-x="0" inkscape:window-y="0" inkscape:window-maximized="1" inkscape:current-layer="g28"/>
  <g id="g28" transform="translate(0.79119106,1.2900073)">
    <path style="fill:#efd2a3" inkscape:connector-curvature="0" id="path2" d="m 27.09796,57.590602 c -1.779,-0.169 -3.596,-0.566 -5.9,-1.29 -2.298,-0.722 -5.65,-2.433 -7.874,-4.018 -1.556,-1.11 -3.9369998,-3.146 -3.9369998,-3.368 0,-0.104 0.42,-0.294 2.1469998,-0.968 a 45.115,45.115 0 0 0 8.648,-4.488 c 6.452,-4.26 11.994,-10.2 16.144,-17.306 0.393,-0.672 0.76,-1.237 0.815,-1.256 0.078,-0.026 0.102,0.798 0.103,3.508 0.002,7.487 0.202,18.06 0.526,27.84 0.022,0.648 0.014,0.68 -0.189,0.777 -0.31,0.149 -2.498,0.505 -3.767,0.613 -1.456,0.124 -5.196,0.1 -6.716,-0.044 z m 17.567,-3.525 c -0.07,-0.282 -0.864,-5.938 -1.11,-7.895 -0.98,-7.814 -1.768,-16.501 -2.173,-23.946 -0.09,-1.663 -0.089,-1.944 0.015,-2.01 0.134,-0.084 14.204,-0.111 14.423,-0.028 0.121,0.047 0.134,1.185 0.134,12.02 v 11.97 l -0.178,0.32 c -0.853,1.537 -4.048,4.995 -6.172,6.678 -1.702,1.349 -4.377,3.082 -4.758,3.082 -0.074,0 -0.155,-0.086 -0.181,-0.19 z m -40.1639998,-11.303 c -0.46,-0.716 -1.477,-2.712 -1.976,-3.875 -0.905,-2.108 -1.71699997,-4.846 -2.10999997,-7.11 -0.408,-2.348 -0.53,-5.95 -0.3,-8.848 0.147,-1.864 0.26,-2.545 0.446,-2.688 0.11,-0.084 3.57399997,-0.106 16.66699977,-0.106 9.091,0 16.59,0.023 16.663,0.051 0.236,0.09 0.15,0.292 -0.556,1.295 -6.197,8.815 -14.12,15.56 -22.993,19.575 -1.9959998,0.903 -5.1999998,2.193 -5.4489998,2.193 -0.044,0 -0.22,-0.219 -0.392,-0.487 z m 12.7599998,-27.373 a 7119.09,7119.09 0 0 0 -13.9939998,-0.157 c -1.134,-0.007 -1.343,-0.028 -1.387,-0.141 -0.064,-0.167 0.42,-1.415 1.13,-2.913 1.589,-3.3500005 3.55,-6.1480005 6.162,-8.7860005 l 1.3619998,-1.376 h 26.142 l -0.05,2.646 a 199.202,199.202 0 0 1 -0.14,4.466 484.775,484.775 0 0 0 -0.174,4.0500005 c -0.046,1.227 -0.106,2.265 -0.132,2.308 -0.063,0.101 -3.567,0.083 -18.919,-0.097 z m 23.895,0.019 c -0.078,-0.05 -0.13,-0.629 -0.189,-2.137 -0.09,-2.319 -0.253,-8.9470005 -0.253,-10.3440005 v -0.91 h 14.983 l 0.046,0.19 c 0.025,0.105 0.035,3.124 0.023,6.71 l -0.024,6.5200005 -7.239,0.02 c -3.981,0.01 -7.287,-0.012 -7.347,-0.05 z"/>
    <path style="fill:#e3b092" inkscape:connector-curvature="0" id="path4" d="m 28.18296,57.646602 c -6.224,-0.639 -11.62,-2.84 -16.428,-6.7 -0.9,-0.722 -2.1979998,-1.92 -2.1979998,-2.027 0,-0.038 0.371,-0.21 0.8249998,-0.382 3.467,-1.317 6.2,-2.658 8.97,-4.402 6.725,-4.232 12.62,-10.371 16.837,-17.536 0.407,-0.691 0.792,-1.313 0.855,-1.38 0.096,-0.105 0.114,0.674 0.114,4.867 10e-4,7.044 0.163,16.005 0.434,23.944 0.053,1.576 0.062,2.81 0.02,2.852 -0.092,0.09 -1.48,0.365 -3.036,0.6 -0.93,0.14 -1.679,0.184 -3.472,0.204 -1.257,0.014 -2.572,-0.004 -2.92,-0.04 z m 16.554,-3.665 c -0.274,-1.172 -1.424,-10.11 -1.943,-15.092 -0.629,-6.033 -1.458,-16.904 -1.387,-18.168 l 0.027,-0.459 h 14.478 l 0.021,11.96 0.022,11.96 -0.442,0.613 c -1.994,2.77 -4.393,5.214 -7.003,7.134 -1.258,0.925 -3.39,2.242 -3.629,2.242 -0.055,0 -0.12,-0.086 -0.144,-0.19 z m -39.9399998,-10.962 c -0.228,-0.256 -1.289,-2.213 -1.78,-3.284 -1.469,-3.197 -2.28999997,-6.095 -2.78199997,-9.82 -0.272,-2.06 -0.274,-5.54 -0.003,-7.626 0.103,-0.795 0.217,-1.557 0.253,-1.694 l 0.067,-0.248 16.69399977,-0.022 c 9.396,-0.012 16.695,0.011 16.695,0.052 0,0.04 -0.39,0.629 -0.868,1.307 -5.158,7.328 -11.642,13.252 -19.042,17.4 -2.315,1.297 -5.0069998,2.534 -7.8609998,3.613 -0.536,0.202 -1.033,0.391 -1.106,0.42 -0.076,0.03 -0.19,-0.011 -0.267,-0.098 z m 12.3799998,-27.715 c -6.962,-0.082 -13.2399998,-0.152 -13.9499998,-0.157 -1.085,-0.006 -1.29,-0.027 -1.29,-0.134 0,-0.24 0.797,-2.12 1.49,-3.514 1.523,-3.0610005 3.378,-5.6300005 5.916,-8.1910005 l 1.2799998,-1.292 h 25.995 l 0.02,0.368 c 0.02,0.384 -0.369,10.7100005 -0.46,12.2270005 l -0.052,0.867 -3.146,-0.012 c -1.73,-0.007 -8.842,-0.08 -15.803,-0.162 z m 23.97,-0.1 c -0.085,-0.234 -0.248,-5.181 -0.322,-9.7800005 l -0.054,-3.408 h 14.907 l 0.062,6.508 c 0.035,3.5800005 0.037,6.5900005 0.005,6.6890005 l -0.057,0.18 h -14.47 z"/>
    <path style="fill:#ecc665" inkscape:connector-curvature="0" id="path6" d="m 28.18296,57.646602 c -6.224,-0.639 -11.62,-2.84 -16.428,-6.7 -0.9,-0.722 -2.1979998,-1.92 -2.1979998,-2.027 0,-0.038 0.371,-0.21 0.8249998,-0.382 3.467,-1.317 6.2,-2.658 8.97,-4.402 6.725,-4.232 12.62,-10.371 16.837,-17.536 0.407,-0.691 0.792,-1.313 0.855,-1.38 0.096,-0.105 0.114,0.674 0.114,4.867 10e-4,7.044 0.163,16.005 0.434,23.944 0.053,1.576 0.062,2.81 0.02,2.852 -0.092,0.09 -1.48,0.365 -3.036,0.6 -0.93,0.14 -1.679,0.184 -3.472,0.204 -1.257,0.014 -2.572,-0.004 -2.92,-0.04 z m 16.647,-3.628 c -0.059,-0.096 -0.834,-5.592 -1.19,-8.44 -0.923,-7.395 -1.885,-18.185 -2.133,-23.94 l -0.057,-1.334 h 14.504 v 23.786 l -0.776,1.04 c -2.344,3.142 -4.944,5.617 -8.03,7.642 -1,0.656 -2.114,1.314 -2.225,1.314 -0.028,0 -0.07,-0.03 -0.093,-0.068 z m -40.4819998,-11.764 c -2.095,-3.571 -3.52799997,-7.906 -4.06699997,-12.298 -0.072,-0.582 -0.15,-1.21 -0.176,-1.397 -0.062,-0.454 -0.057,-4.556 0.006,-5.037 l 0.184,-1.44 c 0.074,-0.582 0.16,-1.21 0.193,-1.397 l 0.057,-0.338 16.65599977,-0.022 c 13.835,-0.017 16.656,-0.002 16.656,0.092 0,0.122 -1.115,1.726 -2.157,3.102 -1.937,2.558 -4.582,5.507 -6.69,7.46 -5.8,5.377 -11.6,8.965 -18.9499998,11.725 -0.55,0.207 -1.052,0.376 -1.114,0.376 -0.063,0 -0.332,-0.372 -0.598,-0.826 z m 31.4429998,-26.814 c -0.029,-0.026 -2.816,-0.055 -20.942,-0.218 -10.3359998,-0.093 -12.8269998,-0.144 -12.8269998,-0.261 0,-0.198 0.683,-1.79 1.356,-3.166 1.601,-3.2680005 3.418,-5.8200005 6.012,-8.4450005 l 1.3179998,-1.334 h 25.858 l 0.001,0.403 c 10e-4,0.62 -0.418,11.4880005 -0.474,12.2700005 -0.032,0.457 -0.087,0.707 -0.16,0.735 -0.062,0.023 -0.125,0.03 -0.142,0.016 z m 5.397,-0.406 c -0.064,-0.405 -0.213,-5.6400005 -0.266,-9.3350005 -0.025,-1.77 -0.062,-3.322 -0.082,-3.45 l -0.036,-0.233 h 14.79 l 0.063,6.555 c 0.035,3.6040005 0.038,6.5950005 0.006,6.6460005 -0.04,0.065 -2.157,0.092 -7.245,0.092 h -7.187 z"/>
    <path style="fill:#fabd2f" inkscape:connector-curvature="0" id="path8" d="m 28.64796,57.640602 c -7.024,-0.692 -13.91,-3.587 -18.9069998,-8.647 3.6419998,-1.59 7.4039998,-3.182 10.7249998,-5.463 6.855,-4.578 12.451,-10.913 16.515,-18.06 0.15,9.735 0.195,19.483 0.53,29.22 1.035,2.72 -1.693,2.562 -3.598,2.748 -1.72,0.38 -3.508,0.274 -5.264,0.202 z m 16.182,-3.622 a 327.53,327.53 0 0 1 -3.38,-33.714 h 14.504 v 23.786 c -2.88,4.089 -6.578,7.667 -11.031,9.996 z m -40.1219998,-11.249 c -3.96399997,-6.65 -5.57799997,-14.751 -4.10999997,-22.38 11.06899977,0.041 22.14399977,-0.103 33.20699977,0.106 -6.89,10.316 -17.073,18.675 -28.9069998,22.513 z m 31.0829998,-27.329 c -11.071,-0.199 -22.148,-0.134 -33.2179998,-0.402 -0.907,-1.371 1.666,-4.503 2.556,-6.3910005 1.524,-2.473 3.521,-4.598 5.5789998,-6.63 h 25.858 c -0.134,4.4 -0.245,8.8080005 -0.538,13.2000005 l -0.096,0.207 -0.14,0.016 z m 5.397,-0.406 c -0.255,-4.334 -0.174,-8.6850005 -0.384,-13.0180005 h 14.79 c 0.028,4.4 0.125,8.8010005 0.07,13.2000005 -4.807,0.173 -9.623,0.062 -14.433,0.093 l -0.025,-0.156 z"/>
    <path style="fill:#f39a20" inkscape:connector-curvature="0" id="path10" d="m 44.82996,54.018602 c -1.717,-11.166 -2.827,-22.43 -3.38,-33.714 h 14.504 v 23.786 c -2.88,4.089 -6.579,7.667 -11.031,9.996 z m -40.0819998,-11.256 c -3.343,-5.589 -4.98599997,-12.23 -4.61199997,-18.721 0.131,-2.11 0.13,-4.536 2.99599997,-3.624 10.2119998,-0.034 20.4259998,-0.064 30.6379998,0.036 -6.854,10.333 -16.988,18.574 -28.7899998,22.542 z m 31.0419998,-27.322 c -11.071,-0.199 -22.148,-0.133 -33.2179998,-0.402 -0.976,-1.177 1.474,-4.108 2.22,-5.8480005 1.578,-2.692 3.701,-4.997 5.9149998,-7.174 h 25.858 c -0.13,4.401 -0.247,8.8100005 -0.538,13.2010005 l -0.096,0.207 -0.14,0.016 z m 5.397,-0.406 c -0.254,-4.334 -0.174,-8.6850005 -0.384,-13.0180005 h 14.79 c 0.028,4.4 0.126,8.8010005 0.07,13.2000005 -4.807,0.173 -9.623,0.062 -14.433,0.093 l -0.024,-0.15 z"/>
    <path style="fill:#d17649" inkscape:connector-curvature="0" id="path12" d="m 44.82996,54.018602 c -0.059,-0.096 -0.834,-5.592 -1.19,-8.44 -0.923,-7.395 -1.885,-18.185 -2.133,-23.94 l -0.057,-1.334 h 14.504 v 23.786 l -0.776,1.04 c -2.344,3.142 -4.944,5.617 -8.03,7.642 -1,0.656 -2.114,1.314 -2.225,1.314 -0.028,0 -0.07,-0.03 -0.093,-0.068 z m -9.04,-38.578 c -0.029,-0.026 -2.816,-0.055 -20.942,-0.218 -10.3359998,-0.093 -12.8269998,-0.144 -12.8269998,-0.261 0,-0.198 0.683,-1.79 1.356,-3.166 1.601,-3.2680005 3.418,-5.8200005 6.012,-8.4450005 l 1.3179998,-1.334 h 25.858 l 10e-4,0.403 c 0.001,0.62 -0.418,11.4880005 -0.474,12.2700005 -0.032,0.457 -0.087,0.707 -0.16,0.735 -0.062,0.023 -0.125,0.03 -0.142,0.016 z m 5.397,-0.406 c -0.064,-0.405 -0.213,-5.6400005 -0.266,-9.3350005 -0.025,-1.77 -0.062,-3.322 -0.082,-3.45 l -0.036,-0.233 h 14.79 l 0.063,6.555 c 0.035,3.6040005 0.038,6.5950005 0.006,6.6460005 -0.04,0.065 -2.157,0.092 -7.245,0.092 h -7.187 z"/>
    <path style="fill:#ea621f" inkscape:connector-curvature="0" id="path14" d="m 44.45196,50.806602 a 352.416,352.416 0 0 1 -2.856,-29.338 l -0.059,-1.08 7.124,0.021 c 4.69,0.015 7.136,-0.007 7.16,-0.062 0.019,-0.047 0.038,5.316 0.041,11.916 0.004,7.134 -0.024,11.993 -0.07,11.98 -0.042,-0.01 -0.372,0.38 -0.733,0.869 a 31.176,31.176 0 0 1 -7.995,7.593 c -0.94,0.62 -1.964,1.212 -2.096,1.212 -0.043,0 -0.275,-1.4 -0.516,-3.112 z m -27.656,-35.673 c -7.2649998,-0.083 -13.5379998,-0.164 -13.9419998,-0.178 l -0.733,-0.027 0.334,-0.847 c 0.433,-1.1 1.468,-3.224 2.077,-4.2610005 1.434,-2.445 2.86,-4.286 4.93,-6.364 0.6719998,-0.675 1.2259998,-1.266 1.2299998,-1.313 0.01,-0.117 25.873,-0.16 25.873,-0.042 a 0.085,0.085 0 0 1 -0.084,0.085 c -0.053,0 -0.085,0.445 -0.086,1.164 0,0.64 -0.095,3.507 -0.21,6.371 -0.116,2.8640005 -0.21,5.2930005 -0.211,5.3980005 l -10e-4,0.19 -2.985,-0.012 c -1.641,-0.007 -8.928,-0.08 -16.192,-0.164 z m 24.475,-0.691 c -0.06,-0.938 -0.193,-5.5500005 -0.269,-9.4200005 -0.032,-1.651 -0.09,-2.837 -0.14,-2.9 -0.067,-0.084 1.407,-0.106 7.313,-0.105 h 7.398 V 15.182602 l -7.125,0.022 -7.126,0.021 z"/>
    <g aria-label="TOP GROUP" transform="scale(0.97654671,1.0240166)" style="font-weight:400;font-size:11.23603821px;line-height:1.25;font-family:sans-serif;letter-spacing:0;word-spacing:0;stroke-width:0.28100094" id="text18">
      <path d="M 73.195114,21.721798 H 68.670987 V 4.1046702 H 62.858534 V 0.32957145 H 79.007567 V 4.1046702 h -5.812453 z" style="font-weight:700;font-size:29.96110153px;font-family:'Bell MT';-inkscape-font-specification:'Bell MT, Bold';font-variant-ligatures:normal;font-variant-caps:normal;font-variant-numeric:normal;font-feature-settings:normal;text-align:start;fill:#ea621d;stroke-width:0.28100094" id="path101"/>
      <path d="m 101.10669,10.995724 q 0,3.325682 -1.108562,5.812453 -1.0786,2.456811 -3.355644,3.835021 -2.247082,1.378211 -5.72257,1.378211 -3.475488,0 -5.752531,-1.378211 -2.247083,-1.37821 -3.355644,-3.864982 -1.078599,-2.486771 -1.078599,-5.812454 0,-3.3256818 1.078599,-5.7824921 Q 82.9203,2.7264596 85.167383,1.37821 87.444426,-6.6757202e-7 90.949875,-6.6757202e-7 q 3.475488,0 5.722571,1.37821066757202 2.247082,1.3482496 3.325682,3.835021 1.108562,2.4568103 1.108562,5.782493 z m -15.609735,0 q 0,3.355643 1.288327,5.303115 1.288327,1.91751 4.134632,1.91751 2.906227,0 4.164593,-1.91751 1.258366,-1.947472 1.258366,-5.303115 0,-3.3556438 -1.258366,-5.2731543 -1.258366,-1.9474716 -4.134632,-1.9474716 -2.876266,0 -4.164593,1.9474716 -1.288327,1.9175105 -1.288327,5.2731543 z" style="font-weight:700;font-size:29.96110153px;font-family:'Bell MT';-inkscape-font-specification:'Bell MT, Bold';font-variant-ligatures:normal;font-variant-caps:normal;font-variant-numeric:normal;font-feature-settings:normal;text-align:start;fill:#ea621d;stroke-width:0.28100094" id="path103"/>
      <path d="m 112.39828,0.32957145 q 4.13463,0 6.02218,1.79766605 1.91751,1.767705 1.91751,4.8836596 0,1.8875494 -0.77899,3.5054489 -0.77899,1.617899 -2.60661,2.606616 -1.79767,0.988716 -4.91363,0.988716 h -1.94747 v 7.61012 h -4.52412 V 0.32957145 Z M 112.15859,4.044748 h -2.06732 v 6.351754 h 1.49806 q 1.91751,0 3.02607,-0.749028 1.13852,-0.7789886 1.13852,-2.4867714 0,-3.1159546 -3.59533,-3.1159546 z" style="font-weight:700;font-size:29.96110153px;font-family:'Bell MT';-inkscape-font-specification:'Bell MT, Bold';font-variant-ligatures:normal;font-variant-caps:normal;font-variant-numeric:normal;font-feature-settings:normal;text-align:start;fill:#ea621d;stroke-width:0.28100094" id="path105"/>
      <path d="m 140.31219,9.7073962 h 8.47899 V 20.793004 q -1.67782,0.569261 -3.50544,0.898833 -1.82763,0.329572 -4.10468,0.329572 -4.79377,0 -7.37043,-2.816344 -2.57665,-2.816343 -2.57665,-8.209341 0,-3.3556438 1.28833,-5.8124541 1.28832,-2.4568103 3.77509,-3.8050599 2.51674,-1.34824957 6.11207,-1.34824957 1.70778,0 3.35564,0.35953322 1.64786,0.35953322 2.99611,0.95875525 l -1.49805,3.6252933 q -0.98872,-0.5093387 -2.24708,-0.8389109 -1.25837,-0.3295721 -2.63658,-0.3295721 -1.97743,0 -3.44553,0.8988331 -1.43813,0.898833 -2.24708,2.5466936 -0.77899,1.6478606 -0.77899,3.8350211 0,2.097277 0.56926,3.715176 0.56926,1.6179 1.79767,2.546694 1.2284,0.898833 3.20584,0.898833 0.95875,0 1.61789,-0.08988 0.65915,-0.08988 1.25837,-0.209728 v -4.464204 h -4.04475 z" style="font-weight:700;font-size:29.96110153px;font-family:'Bell MT';-inkscape-font-specification:'Bell MT, Bold';font-variant-ligatures:normal;font-variant-caps:normal;font-variant-numeric:normal;font-feature-settings:normal;text-align:start;fill:#ea621d;stroke-width:0.28100094" id="path107"/>
      <path d="m 160.13474,0.32957145 q 4.37432,0 6.44164,1.58793835 2.09728,1.5879384 2.09728,4.8237374 0,1.468094 -0.56927,2.5766547 -0.5393,1.0786001 -1.46809,1.8575881 -0.89883,0.749028 -1.94747,1.228405 l 6.29183,9.317903 h -5.03346 l -5.09339,-8.209342 h -2.42685 v 8.209342 h -4.52413 V 0.32957145 Z M 159.80517,4.044748 h -1.37821 v 5.7824926 h 1.46809 q 2.24709,0 3.20584,-0.7490275 0.98872,-0.7490275 0.98872,-2.2171215 0,-1.5280162 -1.04864,-2.1571993 -1.04864,-0.6591443 -3.2358,-0.6591443 z" style="font-weight:700;font-size:29.96110153px;font-family:'Bell MT';-inkscape-font-specification:'Bell MT, Bold';font-variant-ligatures:normal;font-variant-caps:normal;font-variant-numeric:normal;font-feature-settings:normal;text-align:start;fill:#ea621d;stroke-width:0.28100094" id="path109"/>
      <path d="m 193.09663,10.995724 q 0,3.325682 -1.10856,5.812453 -1.0786,2.456811 -3.35564,3.835021 -2.24708,1.378211 -5.72257,1.378211 -3.47549,0 -5.75253,-1.378211 -2.24709,-1.37821 -3.35565,-3.864982 -1.0786,-2.486771 -1.0786,-5.812454 0,-3.3256818 1.0786,-5.7824921 1.10856,-2.4568103 3.35565,-3.8050599 2.27704,-1.37821066757202 5.78249,-1.37821066757202 3.47549,0 5.72257,1.37821066757202 2.24708,1.3482496 3.32568,3.835021 1.10856,2.4568103 1.10856,5.782493 z m -15.60973,0 q 0,3.355643 1.28833,5.303115 1.28832,1.91751 4.13463,1.91751 2.90623,0 4.16459,-1.91751 1.25837,-1.947472 1.25837,-5.303115 0,-3.3556438 -1.25837,-5.2731543 -1.25836,-1.9474716 -4.13463,-1.9474716 -2.87627,0 -4.16459,1.9474716 -1.28833,1.9175105 -1.28833,5.2731543 z" style="font-weight:700;font-size:29.96110153px;font-family:'Bell MT';-inkscape-font-specification:'Bell MT, Bold';font-variant-ligatures:normal;font-variant-caps:normal;font-variant-numeric:normal;font-feature-settings:normal;text-align:start;fill:#ea621d;stroke-width:0.28100094" id="path111"/>
      <path d="M 214.9645,0.32957145 V 14.1716 q 0,2.217122 -0.98872,4.014788 -0.95875,1.767705 -2.93619,2.816344 -1.97743,1.018677 -4.94358,1.018677 -4.25447,0 -6.4716,-2.157199 -2.21712,-2.187161 -2.21712,-5.752532 V 0.32957145 h 4.52413 V 13.422573 q 0,2.666538 1.0786,3.745138 1.0786,1.048638 3.20584,1.048638 2.21712,0 3.20583,-1.168483 1.01868,-1.168483 1.01868,-3.655254 V 0.32957145 Z" style="font-weight:700;font-size:29.96110153px;font-family:'Bell MT';-inkscape-font-specification:'Bell MT, Bold';font-variant-ligatures:normal;font-variant-caps:normal;font-variant-numeric:normal;font-feature-settings:normal;text-align:start;fill:#ea621d;stroke-width:0.28100094" id="path113"/>
      <path d="m 227.03461,0.32957145 q 4.13463,0 6.02218,1.79766605 1.91751,1.767705 1.91751,4.8836596 0,1.8875494 -0.77899,3.5054489 -0.77899,1.617899 -2.60662,2.606616 -1.79766,0.988716 -4.91362,0.988716 h -1.94747 v 7.61012 h -4.52412 V 0.32957145 Z M 226.79492,4.044748 h -2.06732 v 6.351754 h 1.49806 q 1.91751,0 3.02607,-0.749028 1.13852,-0.7789886 1.13852,-2.4867714 0,-3.1159546 -3.59533,-3.1159546 z" style="font-weight:700;font-size:29.96110153px;font-family:'Bell MT';-inkscape-font-specification:'Bell MT, Bold';font-variant-ligatures:normal;font-variant-caps:normal;font-variant-numeric:normal;font-feature-settings:normal;text-align:start;fill:#ea621d;stroke-width:0.28100094" id="path115"/>
    </g>
    <g aria-label="EXPRESS" transform="scale(0.97654671,1.0240166)" style="font-weight:700;font-size:28.08909607px;line-height:1.25;font-family:'Bell MT';-inkscape-font-specification:'Bell MT, Bold';font-variant-ligatures:normal;font-variant-caps:normal;font-variant-numeric:normal;font-feature-settings:normal;text-align:start;letter-spacing:0;word-spacing:0;stroke-width:0.28100094" id="text22">
      <path d="M 82.363833,55.80291 H 65.739648 V 26.922938 h 16.624185 v 5.01557 H 71.847317 v 6.350358 h 9.78845 v 5.015569 h -9.78845 v 7.442457 h 10.516516 z" style="font-size:40.44813919px;line-height:1.25;-inkscape-font-specification:'Bell MT, Bold';font-variant-ligatures:normal;font-variant-caps:normal;font-variant-numeric:normal;font-feature-settings:normal;text-align:start;fill:#ea621f;stroke-width:0.28100094" id="path118"/>
      <path d="m 111.7513,55.80291 h -6.99753 L 98.039384,44.881912 91.324993,55.80291 H 84.772394 L 94.358603,40.917995 85.379116,26.922938 h 6.75484 l 6.229013,10.395172 6.107671,-10.395172 h 6.59304 L 102.0033,41.24158 Z" style="font-size:40.44813919px;line-height:1.25;-inkscape-font-specification:'Bell MT, Bold';font-variant-ligatures:normal;font-variant-caps:normal;font-variant-numeric:normal;font-feature-settings:normal;text-align:start;fill:#ea621f;stroke-width:0.28100094" id="path120"/>
      <path d="m 124.65299,26.922938 q 5.58185,0 8.13008,2.426889 2.58868,2.38644 2.58868,6.593047 0,2.548232 -1.05165,4.732432 -1.05165,2.184199 -3.51899,3.518988 -2.42689,1.334788 -6.63349,1.334788 h -2.62913 V 55.80291 h -6.10767 V 26.922938 Z m -0.32358,5.01557 h -2.79092 v 8.575005 h 2.0224 q 2.58868,0 4.08527,-1.011203 1.53703,-1.051652 1.53703,-3.357196 0,-4.206606 -4.85378,-4.206606 z" style="font-size:40.44813919px;line-height:1.25;-inkscape-font-specification:'Bell MT, Bold';font-variant-ligatures:normal;font-variant-caps:normal;font-variant-numeric:normal;font-feature-settings:normal;text-align:start;fill:#ea621f;stroke-width:0.28100094" id="path122"/>
      <path d="m 149.28212,26.922938 q 5.90543,0 8.69635,2.143752 2.83137,2.143751 2.83137,6.51215 0,1.981959 -0.76852,3.47854 -0.72806,1.456133 -1.98196,2.507785 -1.21344,1.011203 -2.62912,1.658374 l 8.4941,12.579371 h -6.79528 l -6.87619,-11.08279 h -3.2763 v 11.08279 h -6.10766 V 26.922938 Z m -0.44493,5.01557 h -1.86062 v 7.806491 h 1.98196 q 3.03361,0 4.32795,-1.011204 1.33479,-1.011203 1.33479,-2.993162 0,-2.062855 -1.41568,-2.912266 -1.41569,-0.889859 -4.3684,-0.889859 z" style="font-size:40.44813919px;line-height:1.25;-inkscape-font-specification:'Bell MT, Bold';font-variant-ligatures:normal;font-variant-caps:normal;font-variant-numeric:normal;font-feature-settings:normal;text-align:start;fill:#ea621f;stroke-width:0.28100094" id="path124"/>
      <path d="M 184.19519,55.80291 H 167.571 V 26.922938 h 16.62419 v 5.01557 h -10.51652 v 6.350358 h 9.78845 v 5.015569 h -9.78845 v 7.442457 h 10.51652 z" style="font-size:40.44813919px;line-height:1.25;-inkscape-font-specification:'Bell MT, Bold';font-variant-ligatures:normal;font-variant-caps:normal;font-variant-numeric:normal;font-feature-settings:normal;text-align:start;fill:#ea621f;stroke-width:0.28100094" id="path126"/>
      <path d="m 207.27274,47.794178 q 0,3.842574 -2.79092,6.148117 -2.75048,2.265096 -7.84694,2.265096 -4.57064,0 -8.17052,-1.73927 v -5.703187 q 2.06285,0.889859 4.24705,1.658373 2.22465,0.728067 4.40885,0.728067 2.26509,0 3.1954,-0.849411 0.97076,-0.889859 0.97076,-2.224648 0,-1.092099 -0.76852,-1.860614 -0.72807,-0.768515 -1.98196,-1.415685 -1.25389,-0.687618 -2.87182,-1.456133 -1.0112,-0.485378 -2.1842,-1.132548 -1.17299,-0.687618 -2.26509,-1.658374 -1.05165,-1.011203 -1.73927,-2.426888 -0.68762,-1.415685 -0.68762,-3.397644 0,-3.883021 2.62913,-6.026772 2.62913,-2.1842 7.15932,-2.1842 2.2651,0 4.2875,0.525826 2.02241,0.525826 4.28751,1.496581 l -1.98196,4.77288 q -1.98196,-0.808962 -3.55944,-1.253892 -1.57748,-0.444929 -3.23585,-0.444929 -1.73927,0 -2.66958,0.808962 -0.93031,0.808963 -0.93031,2.103304 0,1.537029 1.37524,2.426888 1.37524,0.889859 4.08526,2.1842 2.22465,1.051651 3.76168,2.184199 1.57748,1.132548 2.42689,2.669577 0.84941,1.537029 0.84941,3.802125 z" style="font-size:40.44813919px;line-height:1.25;-inkscape-font-specification:'Bell MT, Bold';font-variant-ligatures:normal;font-variant-caps:normal;font-variant-numeric:normal;font-feature-settings:normal;text-align:start;fill:#ea621f;stroke-width:0.28100094" id="path128"/>
      <path d="m 229.55082,47.794178 q 0,3.842574 -2.79093,6.148117 -2.75047,2.265096 -7.84693,2.265096 -4.57064,0 -8.17053,-1.73927 v -5.703187 q 2.06286,0.889859 4.24706,1.658373 2.22464,0.728067 4.40884,0.728067 2.2651,0 3.19541,-0.849411 0.97075,-0.889859 0.97075,-2.224648 0,-1.092099 -0.76851,-1.860614 -0.72807,-0.768515 -1.98196,-1.415685 -1.25389,-0.687618 -2.87182,-1.456133 -1.0112,-0.485378 -2.1842,-1.132548 -1.173,-0.687618 -2.2651,-1.658374 -1.05165,-1.011203 -1.73927,-2.426888 -0.68761,-1.415685 -0.68761,-3.397644 0,-3.883021 2.62913,-6.026772 2.62912,-2.1842 7.15932,-2.1842 2.26509,0 4.2875,0.525826 2.02241,0.525826 4.2875,1.496581 l -1.98196,4.77288 q -1.98196,-0.808962 -3.55943,-1.253892 -1.57748,-0.444929 -3.23585,-0.444929 -1.73927,0 -2.66958,0.808962 -0.93031,0.808963 -0.93031,2.103304 0,1.537029 1.37524,2.426888 1.37523,0.889859 4.08526,2.1842 2.22465,1.051651 3.76168,2.184199 1.57747,1.132548 2.42689,2.669577 0.84941,1.537029 0.84941,3.802125 z" style="font-size:40.44813919px;line-height:1.25;-inkscape-font-specification:'Bell MT, Bold';font-variant-ligatures:normal;font-variant-caps:normal;font-variant-numeric:normal;font-feature-settings:normal;text-align:start;fill:#ea621f;stroke-width:0.28100094" id="path130"/>
    </g>
  </g>
</svg>